<mxfile host="app.diagrams.net" modified="2021-06-15T05:54:16.620Z" agent="5.0 (Windows NT 10.0; Win64; x64) AppleWebKit/537.36 (KHTML, like Gecko) Chrome/91.0.4469.4 Safari/537.36" etag="IaIMYRluxdf-vo63JMfD" version="14.7.7" type="github">
  <diagram id="jib1Xb_z_MjYBmop8gbu" name="Page-1">
    <mxGraphModel dx="2249" dy="1931" grid="1" gridSize="10" guides="1" tooltips="1" connect="1" arrows="1" fold="1" page="1" pageScale="1" pageWidth="827" pageHeight="1169" math="0" shadow="0">
      <root>
        <mxCell id="0" />
        <mxCell id="1" parent="0" />
        <mxCell id="bece3V_QNflk8oNQVOJZ-1" value="" style="rounded=0;whiteSpace=wrap;html=1;" vertex="1" parent="1">
          <mxGeometry x="-10" y="80" width="1080" height="760" as="geometry" />
        </mxCell>
        <mxCell id="bece3V_QNflk8oNQVOJZ-2" value="" style="shape=folder;fontStyle=1;spacingTop=10;tabWidth=150;tabHeight=30;tabPosition=left;html=1;" vertex="1" parent="1">
          <mxGeometry x="90" y="240" width="950" height="380" as="geometry" />
        </mxCell>
        <mxCell id="bece3V_QNflk8oNQVOJZ-3" value="Batch processing Layer" style="text;html=1;strokeColor=none;fillColor=none;align=center;verticalAlign=middle;whiteSpace=wrap;rounded=0;" vertex="1" parent="1">
          <mxGeometry x="87.5" y="250" width="140" as="geometry" />
        </mxCell>
        <mxCell id="bece3V_QNflk8oNQVOJZ-4" value="" style="shape=folder;fontStyle=1;spacingTop=10;tabWidth=90;tabHeight=30;tabPosition=left;html=1;" vertex="1" parent="1">
          <mxGeometry x="200" y="90" width="360" height="120" as="geometry" />
        </mxCell>
        <mxCell id="bece3V_QNflk8oNQVOJZ-5" value="Client&lt;br&gt;" style="text;html=1;strokeColor=none;fillColor=none;align=center;verticalAlign=middle;whiteSpace=wrap;rounded=0;" vertex="1" parent="1">
          <mxGeometry x="200" y="90" width="40" height="20" as="geometry" />
        </mxCell>
        <mxCell id="bece3V_QNflk8oNQVOJZ-6" value="" style="shape=folder;fontStyle=1;spacingTop=10;tabWidth=38;tabHeight=20;tabPosition=left;html=1;" vertex="1" parent="1">
          <mxGeometry x="212.5" y="130" width="70" height="50" as="geometry" />
        </mxCell>
        <mxCell id="bece3V_QNflk8oNQVOJZ-7" value="Batch Job coordinator" style="shape=folder;fontStyle=1;spacingTop=10;tabWidth=75;tabHeight=20;tabPosition=left;html=1;" vertex="1" parent="1">
          <mxGeometry x="212.5" y="310" width="155" height="70" as="geometry" />
        </mxCell>
        <mxCell id="bece3V_QNflk8oNQVOJZ-8" value="&amp;lt;&amp;lt;Module&amp;gt;&amp;gt;" style="text;html=1;strokeColor=none;fillColor=none;align=center;verticalAlign=middle;whiteSpace=wrap;rounded=0;" vertex="1" parent="1">
          <mxGeometry x="227.5" y="310" width="40" height="20" as="geometry" />
        </mxCell>
        <mxCell id="bece3V_QNflk8oNQVOJZ-9" value="Job Steps" style="shape=folder;fontStyle=1;spacingTop=10;tabWidth=76;tabHeight=20;tabPosition=left;html=1;" vertex="1" parent="1">
          <mxGeometry x="434" y="310" width="176" height="70" as="geometry" />
        </mxCell>
        <mxCell id="bece3V_QNflk8oNQVOJZ-10" value="&amp;lt;&amp;lt;Module&amp;gt;&amp;gt;" style="text;html=1;strokeColor=none;fillColor=none;align=center;verticalAlign=middle;whiteSpace=wrap;rounded=0;" vertex="1" parent="1">
          <mxGeometry x="434" y="310" width="76" height="20" as="geometry" />
        </mxCell>
        <mxCell id="bece3V_QNflk8oNQVOJZ-11" value="" style="shape=folder;fontStyle=1;spacingTop=10;tabWidth=150;tabHeight=30;tabPosition=left;html=1;" vertex="1" parent="1">
          <mxGeometry y="640" width="210" height="190" as="geometry" />
        </mxCell>
        <mxCell id="bece3V_QNflk8oNQVOJZ-12" value="Data access Layer" style="text;html=1;strokeColor=none;fillColor=none;align=center;verticalAlign=middle;whiteSpace=wrap;rounded=0;" vertex="1" parent="1">
          <mxGeometry y="650" width="140" as="geometry" />
        </mxCell>
        <mxCell id="bece3V_QNflk8oNQVOJZ-13" value="Local Database Connector" style="shape=folder;fontStyle=1;spacingTop=10;tabWidth=75;tabHeight=20;tabPosition=left;html=1;" vertex="1" parent="1">
          <mxGeometry x="12.5" y="710" width="155" height="70" as="geometry" />
        </mxCell>
        <mxCell id="bece3V_QNflk8oNQVOJZ-14" value="&amp;lt;&amp;lt;Module&amp;gt;&amp;gt;" style="text;html=1;strokeColor=none;fillColor=none;align=center;verticalAlign=middle;whiteSpace=wrap;rounded=0;" vertex="1" parent="1">
          <mxGeometry x="27.5" y="710" width="40" height="20" as="geometry" />
        </mxCell>
        <mxCell id="bece3V_QNflk8oNQVOJZ-15" value="" style="shape=folder;fontStyle=1;spacingTop=10;tabWidth=150;tabHeight=30;tabPosition=left;html=1;" vertex="1" parent="1">
          <mxGeometry x="300" y="640" width="760" height="190" as="geometry" />
        </mxCell>
        <mxCell id="bece3V_QNflk8oNQVOJZ-16" value="Data access Layer" style="text;html=1;strokeColor=none;fillColor=none;align=center;verticalAlign=middle;whiteSpace=wrap;rounded=0;" vertex="1" parent="1">
          <mxGeometry x="300" y="650" width="140" as="geometry" />
        </mxCell>
        <mxCell id="bece3V_QNflk8oNQVOJZ-17" value="Notifications Manager" style="shape=folder;fontStyle=1;spacingTop=10;tabWidth=75;tabHeight=20;tabPosition=left;html=1;" vertex="1" parent="1">
          <mxGeometry x="312.5" y="710" width="155" height="70" as="geometry" />
        </mxCell>
        <mxCell id="bece3V_QNflk8oNQVOJZ-18" value="&amp;lt;&amp;lt;Module&amp;gt;&amp;gt;" style="text;html=1;strokeColor=none;fillColor=none;align=center;verticalAlign=middle;whiteSpace=wrap;rounded=0;" vertex="1" parent="1">
          <mxGeometry x="327.5" y="710" width="40" height="20" as="geometry" />
        </mxCell>
        <mxCell id="bece3V_QNflk8oNQVOJZ-19" value="Data Source Connector" style="shape=folder;fontStyle=1;spacingTop=10;tabWidth=75;tabHeight=20;tabPosition=left;html=1;" vertex="1" parent="1">
          <mxGeometry x="530" y="710" width="155" height="70" as="geometry" />
        </mxCell>
        <mxCell id="bece3V_QNflk8oNQVOJZ-20" value="&amp;lt;&amp;lt;Module&amp;gt;&amp;gt;" style="text;html=1;strokeColor=none;fillColor=none;align=center;verticalAlign=middle;whiteSpace=wrap;rounded=0;" vertex="1" parent="1">
          <mxGeometry x="550" y="710" width="40" height="20" as="geometry" />
        </mxCell>
        <mxCell id="bece3V_QNflk8oNQVOJZ-21" value="Digital Signature Provider Connector" style="shape=folder;fontStyle=1;spacingTop=10;tabWidth=75;tabHeight=20;tabPosition=left;html=1;" vertex="1" parent="1">
          <mxGeometry x="750" y="710" width="230" height="70" as="geometry" />
        </mxCell>
        <mxCell id="bece3V_QNflk8oNQVOJZ-22" value="&amp;lt;&amp;lt;Module&amp;gt;&amp;gt;" style="text;html=1;strokeColor=none;fillColor=none;align=center;verticalAlign=middle;whiteSpace=wrap;rounded=0;" vertex="1" parent="1">
          <mxGeometry x="765" y="710" width="40" height="20" as="geometry" />
        </mxCell>
        <mxCell id="bece3V_QNflk8oNQVOJZ-23" value="Use" style="endArrow=open;endSize=12;dashed=1;html=1;exitX=0.25;exitY=1;exitDx=0;exitDy=0;exitPerimeter=0;entryX=0.5;entryY=0;entryDx=0;entryDy=0;" edge="1" parent="1" source="bece3V_QNflk8oNQVOJZ-9" target="bece3V_QNflk8oNQVOJZ-14">
          <mxGeometry width="160" relative="1" as="geometry">
            <mxPoint x="350" y="480" as="sourcePoint" />
            <mxPoint x="510" y="480" as="targetPoint" />
          </mxGeometry>
        </mxCell>
        <mxCell id="bece3V_QNflk8oNQVOJZ-24" value="Use" style="endArrow=open;endSize=12;dashed=1;html=1;exitX=0.5;exitY=1;exitDx=0;exitDy=0;exitPerimeter=0;entryX=0.5;entryY=0;entryDx=0;entryDy=0;" edge="1" parent="1" source="bece3V_QNflk8oNQVOJZ-9" target="bece3V_QNflk8oNQVOJZ-18">
          <mxGeometry width="160" relative="1" as="geometry">
            <mxPoint x="350" y="480" as="sourcePoint" />
            <mxPoint x="510" y="480" as="targetPoint" />
          </mxGeometry>
        </mxCell>
        <mxCell id="bece3V_QNflk8oNQVOJZ-25" value="Use" style="endArrow=open;endSize=12;dashed=1;html=1;exitX=0.75;exitY=1;exitDx=0;exitDy=0;exitPerimeter=0;" edge="1" parent="1" source="bece3V_QNflk8oNQVOJZ-9">
          <mxGeometry width="160" relative="1" as="geometry">
            <mxPoint x="522" y="382" as="sourcePoint" />
            <mxPoint x="570" y="710" as="targetPoint" />
          </mxGeometry>
        </mxCell>
        <mxCell id="bece3V_QNflk8oNQVOJZ-26" value="Use" style="endArrow=open;endSize=12;dashed=1;html=1;exitX=0.75;exitY=1;exitDx=0;exitDy=0;exitPerimeter=0;entryX=0.5;entryY=0;entryDx=0;entryDy=0;" edge="1" parent="1" source="bece3V_QNflk8oNQVOJZ-9" target="bece3V_QNflk8oNQVOJZ-22">
          <mxGeometry width="160" relative="1" as="geometry">
            <mxPoint x="350" y="480" as="sourcePoint" />
            <mxPoint x="510" y="480" as="targetPoint" />
          </mxGeometry>
        </mxCell>
        <mxCell id="bece3V_QNflk8oNQVOJZ-27" value="UI" style="text;html=1;strokeColor=none;fillColor=none;align=center;verticalAlign=middle;whiteSpace=wrap;rounded=0;" vertex="1" parent="1">
          <mxGeometry x="210" y="130" width="40" height="20" as="geometry" />
        </mxCell>
        <mxCell id="bece3V_QNflk8oNQVOJZ-28" value="Use" style="endArrow=open;endSize=12;dashed=1;html=1;exitX=0;exitY=0;exitDx=70;exitDy=35;exitPerimeter=0;entryX=0;entryY=0;entryDx=0;entryDy=35;entryPerimeter=0;" edge="1" parent="1" source="bece3V_QNflk8oNQVOJZ-6" target="bece3V_QNflk8oNQVOJZ-29">
          <mxGeometry x="-0.2308" width="160" relative="1" as="geometry">
            <mxPoint x="20" y="300" as="sourcePoint" />
            <mxPoint x="180" y="300" as="targetPoint" />
            <mxPoint as="offset" />
          </mxGeometry>
        </mxCell>
        <mxCell id="bece3V_QNflk8oNQVOJZ-29" value="" style="shape=folder;fontStyle=1;spacingTop=10;tabWidth=145;tabHeight=20;tabPosition=left;html=1;" vertex="1" parent="1">
          <mxGeometry x="355" y="130" width="185" height="50" as="geometry" />
        </mxCell>
        <mxCell id="bece3V_QNflk8oNQVOJZ-30" value="Batch Job Interfaces" style="text;html=1;strokeColor=none;fillColor=none;align=center;verticalAlign=middle;whiteSpace=wrap;rounded=0;" vertex="1" parent="1">
          <mxGeometry x="355" y="130" width="125" height="10" as="geometry" />
        </mxCell>
        <mxCell id="bece3V_QNflk8oNQVOJZ-31" value="Use" style="endArrow=open;endSize=12;dashed=1;html=1;exitX=0.5;exitY=1;exitDx=0;exitDy=0;exitPerimeter=0;entryX=0.5;entryY=0;entryDx=0;entryDy=0;" edge="1" parent="1" source="bece3V_QNflk8oNQVOJZ-29" target="bece3V_QNflk8oNQVOJZ-8">
          <mxGeometry width="160" relative="1" as="geometry">
            <mxPoint x="350" y="270" as="sourcePoint" />
            <mxPoint x="510" y="270" as="targetPoint" />
          </mxGeometry>
        </mxCell>
        <mxCell id="bece3V_QNflk8oNQVOJZ-32" value="Use" style="endArrow=open;endSize=12;dashed=1;html=1;entryX=0;entryY=0;entryDx=0;entryDy=45;entryPerimeter=0;" edge="1" parent="1" target="bece3V_QNflk8oNQVOJZ-9">
          <mxGeometry width="160" relative="1" as="geometry">
            <mxPoint x="370" y="350" as="sourcePoint" />
            <mxPoint x="510" y="270" as="targetPoint" />
          </mxGeometry>
        </mxCell>
        <mxCell id="bece3V_QNflk8oNQVOJZ-33" value="Quick Query Service" style="shape=folder;fontStyle=1;spacingTop=10;tabWidth=90;tabHeight=20;tabPosition=left;html=1;" vertex="1" parent="1">
          <mxGeometry x="710" y="290" width="176" height="70" as="geometry" />
        </mxCell>
        <mxCell id="bece3V_QNflk8oNQVOJZ-34" value="&amp;lt;&amp;lt;Service&amp;gt;&amp;gt;" style="text;html=1;strokeColor=none;fillColor=none;align=center;verticalAlign=middle;whiteSpace=wrap;rounded=0;" vertex="1" parent="1">
          <mxGeometry x="700" y="290" width="110" height="20" as="geometry" />
        </mxCell>
        <mxCell id="bece3V_QNflk8oNQVOJZ-35" value="Use" style="endArrow=open;endSize=12;dashed=1;html=1;exitX=0;exitY=0;exitDx=176;exitDy=45;exitPerimeter=0;entryX=0;entryY=0;entryDx=0;entryDy=45;entryPerimeter=0;" edge="1" parent="1" source="bece3V_QNflk8oNQVOJZ-9" target="bece3V_QNflk8oNQVOJZ-33">
          <mxGeometry width="160" relative="1" as="geometry">
            <mxPoint x="350" y="470" as="sourcePoint" />
            <mxPoint x="510" y="470" as="targetPoint" />
          </mxGeometry>
        </mxCell>
        <mxCell id="bece3V_QNflk8oNQVOJZ-36" value="Validate Information" style="shape=folder;fontStyle=1;spacingTop=10;tabWidth=90;tabHeight=20;tabPosition=left;html=1;" vertex="1" parent="1">
          <mxGeometry x="710" y="380" width="176" height="70" as="geometry" />
        </mxCell>
        <mxCell id="bece3V_QNflk8oNQVOJZ-37" value="&amp;lt;&amp;lt;Filter&amp;gt;&amp;gt;" style="text;html=1;strokeColor=none;fillColor=none;align=center;verticalAlign=middle;whiteSpace=wrap;rounded=0;" vertex="1" parent="1">
          <mxGeometry x="700" y="380" width="110" height="20" as="geometry" />
        </mxCell>
        <mxCell id="bece3V_QNflk8oNQVOJZ-38" value="Use" style="endArrow=open;endSize=12;dashed=1;html=1;exitX=0;exitY=0;exitDx=176;exitDy=45;exitPerimeter=0;entryX=0;entryY=0;entryDx=0;entryDy=45;entryPerimeter=0;" edge="1" parent="1" source="bece3V_QNflk8oNQVOJZ-9" target="bece3V_QNflk8oNQVOJZ-36">
          <mxGeometry width="160" relative="1" as="geometry">
            <mxPoint x="350" y="470" as="sourcePoint" />
            <mxPoint x="510" y="470" as="targetPoint" />
          </mxGeometry>
        </mxCell>
        <mxCell id="bece3V_QNflk8oNQVOJZ-39" value="Generate bank statements" style="shape=folder;fontStyle=1;spacingTop=10;tabWidth=90;tabHeight=20;tabPosition=left;html=1;" vertex="1" parent="1">
          <mxGeometry x="710" y="460" width="176" height="70" as="geometry" />
        </mxCell>
        <mxCell id="bece3V_QNflk8oNQVOJZ-40" value="&amp;lt;&amp;lt;Filter&amp;gt;&amp;gt;" style="text;html=1;strokeColor=none;fillColor=none;align=center;verticalAlign=middle;whiteSpace=wrap;rounded=0;" vertex="1" parent="1">
          <mxGeometry x="700" y="460" width="110" height="20" as="geometry" />
        </mxCell>
        <mxCell id="bece3V_QNflk8oNQVOJZ-41" value="" style="endArrow=classic;html=1;exitX=0;exitY=0;exitDx=176;exitDy=45;exitPerimeter=0;entryX=0;entryY=0;entryDx=176;entryDy=45;entryPerimeter=0;" edge="1" parent="1" source="bece3V_QNflk8oNQVOJZ-36" target="bece3V_QNflk8oNQVOJZ-39">
          <mxGeometry relative="1" as="geometry">
            <mxPoint x="830" y="480" as="sourcePoint" />
            <mxPoint x="930" y="480" as="targetPoint" />
            <Array as="points">
              <mxPoint x="940" y="425" />
              <mxPoint x="940" y="460" />
              <mxPoint x="940" y="505" />
            </Array>
          </mxGeometry>
        </mxCell>
        <mxCell id="bece3V_QNflk8oNQVOJZ-42" value="Pipe" style="edgeLabel;resizable=0;html=1;align=center;verticalAlign=middle;" connectable="0" vertex="1" parent="bece3V_QNflk8oNQVOJZ-41">
          <mxGeometry relative="1" as="geometry">
            <mxPoint x="10" y="5" as="offset" />
          </mxGeometry>
        </mxCell>
        <mxCell id="bece3V_QNflk8oNQVOJZ-43" style="edgeStyle=orthogonalEdgeStyle;rounded=0;orthogonalLoop=1;jettySize=auto;html=1;exitX=0.5;exitY=0.5;exitDx=0;exitDy=0;exitPerimeter=0;entryX=0;entryY=0;entryDx=0;entryDy=75;entryPerimeter=0;" edge="1" parent="1" source="bece3V_QNflk8oNQVOJZ-44" target="bece3V_QNflk8oNQVOJZ-4">
          <mxGeometry relative="1" as="geometry">
            <mxPoint x="200" y="-10" as="targetPoint" />
          </mxGeometry>
        </mxCell>
        <mxCell id="bece3V_QNflk8oNQVOJZ-44" value="User &amp;amp;&amp;amp;&amp;nbsp;administrator" style="shape=umlActor;verticalLabelPosition=bottom;verticalAlign=top;html=1;gradientColor=none;" vertex="1" parent="1">
          <mxGeometry x="110" y="-10" width="30" height="60" as="geometry" />
        </mxCell>
        <mxCell id="bece3V_QNflk8oNQVOJZ-45" style="edgeStyle=orthogonalEdgeStyle;rounded=0;orthogonalLoop=1;jettySize=auto;html=1;exitX=1;exitY=0.5;exitDx=0;exitDy=0;" edge="1" parent="1" source="bece3V_QNflk8oNQVOJZ-46">
          <mxGeometry relative="1" as="geometry">
            <mxPoint x="-10" y="320" as="targetPoint" />
          </mxGeometry>
        </mxCell>
        <mxCell id="bece3V_QNflk8oNQVOJZ-46" value="&lt;font style=&quot;font-size: 16px&quot;&gt;Bank statement data source&lt;/font&gt;" style="ellipse;whiteSpace=wrap;html=1;gradientColor=none;" vertex="1" parent="1">
          <mxGeometry x="-320" y="280" width="270" height="180" as="geometry" />
        </mxCell>
        <mxCell id="bece3V_QNflk8oNQVOJZ-47" value="&lt;font style=&quot;font-size: 15px&quot;&gt;Digital signature provicer&lt;/font&gt;" style="ellipse;whiteSpace=wrap;html=1;gradientColor=none;" vertex="1" parent="1">
          <mxGeometry x="1210" y="320" width="220" height="140" as="geometry" />
        </mxCell>
        <mxCell id="bece3V_QNflk8oNQVOJZ-48" value="" style="endArrow=classic;html=1;exitX=0.999;exitY=0.377;exitDx=0;exitDy=0;exitPerimeter=0;entryX=0;entryY=0;entryDx=0;entryDy=0;" edge="1" parent="1" source="bece3V_QNflk8oNQVOJZ-1" target="bece3V_QNflk8oNQVOJZ-47">
          <mxGeometry width="50" height="50" relative="1" as="geometry">
            <mxPoint x="1110" y="400" as="sourcePoint" />
            <mxPoint x="1160" y="350" as="targetPoint" />
          </mxGeometry>
        </mxCell>
        <mxCell id="bece3V_QNflk8oNQVOJZ-49" value="" style="endArrow=classic;html=1;exitX=0;exitY=1;exitDx=0;exitDy=0;" edge="1" parent="1" source="bece3V_QNflk8oNQVOJZ-47">
          <mxGeometry width="50" height="50" relative="1" as="geometry">
            <mxPoint x="1100" y="480" as="sourcePoint" />
            <mxPoint x="1071" y="376" as="targetPoint" />
          </mxGeometry>
        </mxCell>
        <mxCell id="bece3V_QNflk8oNQVOJZ-50" value="&lt;font style=&quot;font-size: 16px&quot;&gt;Validated&amp;nbsp; statement information&lt;/font&gt;" style="text;html=1;strokeColor=none;fillColor=none;align=center;verticalAlign=middle;whiteSpace=wrap;rounded=0;" vertex="1" parent="1">
          <mxGeometry x="1110" y="310" width="40" height="20" as="geometry" />
        </mxCell>
        <mxCell id="bece3V_QNflk8oNQVOJZ-51" value="&lt;font style=&quot;font-size: 16px&quot;&gt;Signed bank statements&lt;/font&gt;" style="text;html=1;strokeColor=none;fillColor=none;align=center;verticalAlign=middle;whiteSpace=wrap;rounded=0;" vertex="1" parent="1">
          <mxGeometry x="1100" y="430" width="40" height="20" as="geometry" />
        </mxCell>
        <mxCell id="bece3V_QNflk8oNQVOJZ-52" value="&lt;font style=&quot;font-size: 16px&quot;&gt;Data storage&lt;/font&gt;" style="ellipse;whiteSpace=wrap;html=1;gradientColor=none;" vertex="1" parent="1">
          <mxGeometry x="470" y="900" width="120" height="80" as="geometry" />
        </mxCell>
        <mxCell id="bece3V_QNflk8oNQVOJZ-53" style="edgeStyle=orthogonalEdgeStyle;rounded=0;orthogonalLoop=1;jettySize=auto;html=1;exitX=0.5;exitY=1;exitDx=0;exitDy=0;" edge="1" parent="1" source="bece3V_QNflk8oNQVOJZ-1" target="bece3V_QNflk8oNQVOJZ-1">
          <mxGeometry relative="1" as="geometry" />
        </mxCell>
        <mxCell id="bece3V_QNflk8oNQVOJZ-54" value="" style="endArrow=classic;startArrow=classic;html=1;exitX=0.5;exitY=0;exitDx=0;exitDy=0;" edge="1" parent="1" source="bece3V_QNflk8oNQVOJZ-52">
          <mxGeometry width="50" height="50" relative="1" as="geometry">
            <mxPoint x="480" y="890" as="sourcePoint" />
            <mxPoint x="530" y="840" as="targetPoint" />
          </mxGeometry>
        </mxCell>
      </root>
    </mxGraphModel>
  </diagram>
</mxfile>
